<svg width="1200" height="760" viewBox="0 0 1200 760" fill="none" xmlns="http://www.w3.org/2000/svg">
  <rect width="1200" height="760" rx="30" fill="#0B1120"/>
  <rect x="48" y="48" width="1104" height="664" rx="24" fill="#111A2F"/>
  <rect x="96" y="92" width="420" height="40" rx="12" fill="#2AF5B3" fill-opacity="0.3"/>
  <rect x="96" y="152" width="680" height="18" rx="9" fill="#2AF5B3" fill-opacity="0.16"/>
  <rect x="96" y="182" width="680" height="18" rx="9" fill="#2AF5B3" fill-opacity="0.16"/>
  <rect x="96" y="230" width="1008" height="450" rx="18" fill="#08111F"/>
  <path d="M160 582C265 470 390 440 496 500C602 560 717 580 820 510C904 453 966 420 1040 408" stroke="#2AF5B3" stroke-width="8" stroke-linecap="round"/>
  <circle cx="496" cy="500" r="10" fill="#7CFCCD"/>
  <circle cx="820" cy="510" r="10" fill="#7CFCCD"/>
  <circle cx="1040" cy="408" r="10" fill="#7CFCCD"/>
  <circle cx="934" cy="166" r="128" fill="#2AF5B3" fill-opacity="0.12"/>
</svg>
